<svg height='100px' width='100px'  fill="#000000" xmlns="http://www.w3.org/2000/svg" xmlns:xlink="http://www.w3.org/1999/xlink" version="1.1" x="0px" y="0px" viewBox="0 0 100 100" enable-background="new 0 0 100 100" xml:space="preserve"><path fill="#000000" d="M95.7,63.1L80.3,23.4c0-0.1-0.1-0.2-0.1-0.3c0,0,0,0-0.1-0.1c0-0.1-0.1-0.1-0.1-0.2c0,0-0.1-0.1-0.1-0.1  c0,0-0.1-0.1-0.1-0.1c-0.1,0-0.1-0.1-0.2-0.1c0,0,0,0,0,0c0,0,0,0,0,0c-0.1,0-0.2-0.1-0.3-0.1c0,0-0.1,0-0.1,0c-0.1,0-0.1,0-0.2,0  c-0.1,0-0.1,0-0.2,0c0,0-0.1,0-0.1,0c-0.1,0-0.2,0-0.2,0.1c0,0,0,0,0,0L26.5,42.6l48.4-27.5c0.3-0.2,0.6-0.5,0.7-0.9  c0.1-0.4,0.1-0.8-0.1-1.1l-4.2-7.3C70.7,4.6,69.6,4,68.5,4c-0.5,0-0.9,0.1-1.4,0.4L39.6,19.9c-0.3,0.1-0.5,0.2-0.7,0.4L3.5,40.4  c-1.4,0.8-1.9,2.8-0.9,4.4l3.9,6.9c0,0.1,0,0.2,0.1,0.2l15.4,39.8c0.7,1.7,2.4,2.9,4.2,2.9c0.6,0,1.1-0.1,1.6-0.3L93.1,69  C95.4,68.1,96.6,65.4,95.7,63.1z M17.1,49.4l-3.3,7.5c0,0.1-0.1,0.2-0.1,0.3L12,57.9l-2.2-5.7L17.1,49.4z M31.9,43.7l-3.3,7.5  c0,0.1-0.1,0.2-0.1,0.3l-10.8,4.2l3.5-7.8L31.9,43.7z M46.6,38l-3.3,7.5c0,0.1-0.1,0.2-0.1,0.3L32.3,50l3.5-7.8L46.6,38z M61.3,32.3  L58,39.8c0,0.1-0.1,0.2-0.1,0.3l-10.8,4.2l3.5-7.8L61.3,32.3z M76.1,26.6l-3.3,7.5c0,0.1-0.1,0.2-0.1,0.3l-10.8,4.2l3.5-7.8  L76.1,26.6z M80.2,31.5l-3.7,1.4l2.3-5.1L80.2,31.5z M24.2,32.1l-1.8,9.3l-10.2,5.8l1.8-9.3L24.2,32.1z M37.8,24.4l-1.8,9.3  c0,0,0,0,0,0l-10.2,5.8l1.8-9.3L37.8,24.4z M51.4,16.7l-1.7,9.1c0,0.1,0,0.1,0,0.2l-10.2,5.8l1.8-9.3L51.4,16.7z M63.4,18.2L53.1,24  l1.7-9.3c0,0,0,0,0,0l10.2-5.8l-1.7,8.9C63.4,18,63.4,18.1,63.4,18.2z M68.7,7.2l3.4,6l-5.4,3.1l1.7-9.2c0,0,0-0.1,0-0.1l0,0  C68.6,7,68.7,7.1,68.7,7.2z M5,43l5.5-3.1l-1.8,9.3l-0.2,0.1l-3.4-6C5.1,43.2,5,43,5,43z M92.9,65.4c-0.2,0.4-0.5,0.7-0.9,0.8  L26.7,91.5c-0.8,0.3-1.7-0.1-2-0.9L13.1,60.7l68.1-26.4c0,0,0,0,0,0l0.1,0l11.6,29.9C93.1,64.6,93,65,92.9,65.4z"></path></svg>