<svg height='100px' width='100px'  fill="#ffffff" xmlns:dc="http://purl.org/dc/elements/1.1/" xmlns:cc="http://creativecommons.org/ns#" xmlns:rdf="http://www.w3.org/1999/02/22-rdf-syntax-ns#" xmlns:svg="http://www.w3.org/2000/svg" xmlns="http://www.w3.org/2000/svg" xmlns:sodipodi="http://sodipodi.sourceforge.net/DTD/sodipodi-0.dtd" xmlns:inkscape="http://www.inkscape.org/namespaces/inkscape" version="1.1" x="0px" y="0px" viewBox="0 0 100 100"><g transform="translate(0,-952.36218)"><path style="text-indent:0;text-transform:none;direction:ltr;block-progression:tb;baseline-shift:baseline;color:#000000;enable-background:accumulate;" d="m 12.719532,961.36416 c -1.61683,0.007 -3.0257997,0.75429 -4.0624597,1.7812 -1.02109,1.39102 -1.68487,2.77328 -1.65618,4.12485 0.81591,23.91296 8.3746797,43.03789 22.0310297,56.12359 13.67459,13.1031 33.33638,20.0102 57.90569,19.9682 1.58037,-0.2191 3.1146,-0.901 4.0937,-1.8437 1.03825,-1.0226 1.83683,-2.4039 1.84374,-4.0312 0.0413,-5.6963 0.0846,-11.4012 0.12495,-17.0932 -0.0463,-1.5933 -0.83064,-2.9145 -1.87499,-3.9062 -1.04435,-0.9917 -2.44015,-1.7317 -4.06246,-1.7187 -5.35557,0.021 -12.51271,-1.8478 -18.28107,-3.2811 -0.65503,-0.1644 -1.38876,0.031 -1.87498,0.4999 l -10.1249,9.8123 c -12.31886,-7.3262 -17.69779,-12.5508 -25.2185,-24.4994 l 10.0624,-9.74972 c 0.51087,-0.49771 0.72239,-1.28156 0.53124,-1.9687 -1.53897,-5.7609 -4.18734,-13.43434 -3.74996,-19.1245 -0.083,-1.54202 -1.40895,-2.92907 -2.40622,-3.68741 -1.05281,-0.78817 -2.45114,-1.44923 -4.09371,-1.40621 -6.39577,0 -12.79155,0 -19.18732,0 z m 0,3.99989 c 6.42479,0 12.86287,0 19.28101,0 0.44742,-0.0168 1.05135,0.21894 1.59374,0.62499 0.48371,0.36213 0.78945,0.8043 0.87499,0.93747 -0.2802,6.47717 2.03545,13.36132 3.49997,18.56202 l -10.3749,10.09349 c -0.65527,0.62924 -0.7927,1.72878 -0.3125,2.49998 8.50594,13.7876 14.60964,19.6986 28.78097,27.968 0.74659,0.4416 1.7816,0.3206 2.40622,-0.2813 l 10.4374,-10.1559 c 5.53865,1.3927 12.28329,3.1796 18.18732,3.1561 0.31468,0 0.86372,0.1973 1.28124,0.5938 0.41753,0.3964 0.619,0.9186 0.62499,1.1249 l -0.12499,16.9683 c -0.001,0.257 -0.19543,0.7957 -0.625,1.2188 -0.42956,0.423 -1.0481,0.6648 -1.43748,0.6874 -23.75651,0.017 -42.22074,-6.6298 -54.99946,-18.8745 -12.80168,-12.2667 -20.03873,-30.27373 -20.81225,-53.46734 0.0184,-0.46069 0.33394,-0.75431 0.5,-1.03117 0.3306,-0.37348 0.83576,-0.46921 1.21873,-0.62504 z" fill="#ffffff" fill-opacity="1" stroke="none" marker="none" visibility="visible" display="inline" overflow="visible"></path></g></svg>