<svg height='100px' width='100px'  fill="#000000" xmlns="http://www.w3.org/2000/svg" xmlns:xlink="http://www.w3.org/1999/xlink" version="1.1" x="0px" y="0px" viewBox="0 0 100 100" style="enable-background:new 0 0 100 100;" xml:space="preserve"><path d="M88,22.2h-9.4c-1.2,0-2.3-0.7-2.8-1.9l-2-4.9c-1.1-2.7-3.6-4.4-6.5-4.4H32.6c-2.9,0-5.4,1.7-6.5,4.4l-2,4.9  c-0.5,1.1-1.6,1.9-2.8,1.9H12c-3.9,0-7,3.1-7,7V82c0,3.9,3.1,7,7,7h76c3.9,0,7-3.1,7-7V29.2C95,25.4,91.9,22.2,88,22.2z M91,82  c0,1.7-1.3,3-3,3H12c-1.7,0-3-1.3-3-3V29.2c0-1.7,1.3-3,3-3h9.4c2.9,0,5.4-1.7,6.5-4.4l2-4.9c0.5-1.1,1.6-1.9,2.8-1.9h34.8  c1.2,0,2.3,0.7,2.8,1.9l2,4.9c1.1,2.7,3.6,4.4,6.5,4.4H88c1.7,0,3,1.3,3,3V82z M50,33c-12.1,0-22,9.9-22,22s9.9,22,22,22  s22-9.9,22-22S62.1,33,50,33z M50,73c-9.9,0-18-8.1-18-18c0-9.9,8.1-18,18-18c9.9,0,18,8.1,18,18C68,64.9,59.9,73,50,73z M24,37.5  c0,2.5-2,4.5-4.5,4.5S15,40,15,37.5s2-4.5,4.5-4.5S24,35,24,37.5z"></path></svg>