<svg height='100px' width='100px'  fill="#000000" xmlns="http://www.w3.org/2000/svg" xmlns:xlink="http://www.w3.org/1999/xlink" version="1.1" x="0px" y="0px" viewBox="0 0 100 100" enable-background="new 0 0 100 100" xml:space="preserve"><g><path d="M37.424,54.45c-1.809-0.881-3.956-0.294-4.802,1.282c-0.852,1.589-0.082,3.575,1.729,4.455   c1.812,0.882,3.95,0.308,4.808-1.281C40.002,57.328,39.238,55.33,37.424,54.45z"></path><path d="M47.9,63.156c-0.855,1.591-0.069,3.588,1.729,4.458c1.807,0.879,3.964,0.316,4.816-1.273   c0.847-1.579,0.068-3.586-1.743-4.466C50.904,61.001,48.744,61.578,47.9,63.156z"></path><path d="M48.01,55.679c0.313-0.585,0.022-1.308-0.626-1.624c-0.644-0.313-1.435-0.115-1.746,0.472   c-0.303,0.565-0.017,1.287,0.632,1.604C46.918,56.447,47.705,56.247,48.01,55.679z"></path><path fill="none" d="M48.51,51.852l-1.146-17.943c-2.273,1.096-3.903,2.485-3.895,4.685l1.498,15.398l-3.453,2.099   c-0.467-1.425-1.553-2.682-3.123-3.442c-2.941-1.433-6.452-0.506-7.834,2.083c-1.386,2.584-0.124,5.842,2.82,7.271   c2.834,1.378,6.193,0.562,7.672-1.813l4.288-2.417l0.445,4.505c-1.287,2.562-0.019,5.749,2.886,7.159   c2.924,1.424,6.444,0.485,7.826-2.101c1.386-2.584,0.116-5.831-2.812-7.254c-1.528-0.742-3.2-0.857-4.657-0.426l-0.25-3.817   l13.983-7.868c1.872-1.281,2.104-3.359,1.705-5.748L48.51,51.852z"></path><path d="M83.017,16h-0.132H72.659c0,0-3.312,11.853-20.812,29.021c0,0,12.781-19.161,12.781-23.119   C62.691,21.963,47.083,22,47.083,22H30.387C27.896,22,27,19.905,27,17.539V16H16.846C14.356,16,12,17.316,12,19.681v59.977   C12,82.022,14.356,84,16.846,84H27v-2.198c0-2.361,9.418-10.644,11.221-15.149l-4.84,12.26L49.076,77H69.02   c2.49,0,3.98,2.44,3.98,4.802V84h9.562C85.051,84,88,82.022,88,79.657V19.681C88,17.316,85.507,16,83.017,16z M21,76h-6v-4h6V76z    M21,69h-6v-4h6V69z M21,62h-6v-4h6V62z M21,55h-6v-4h6V55z M21,48h-6v-4h6V48z M21,41h-6v-4h6V41z M21,34h-6v-4h6V34z M21,27h-6   v-5h6V27z M62.76,47.969l-13.983,7.868l0.25,3.817c1.457-0.432,3.128-0.316,4.657,0.426c2.928,1.423,4.197,4.67,2.812,7.254   c-1.382,2.586-4.901,3.524-7.826,2.101c-2.905-1.41-4.173-4.597-2.886-7.159l-0.445-4.505l-4.288,2.417   c-1.479,2.375-4.838,3.191-7.672,1.813c-2.944-1.429-4.206-4.687-2.82-7.271c1.382-2.589,4.893-3.516,7.834-2.083   c1.57,0.761,2.655,2.018,3.123,3.442l3.453-2.099l-1.498-15.398c-0.008-2.199,1.622-3.589,3.895-4.685l1.146,17.943l15.955-9.631   C64.863,44.609,64.632,46.688,62.76,47.969z M84,76h-6v-4h6V76z M84,69h-6v-4h6V69z M84,62h-6v-4h6V62z M84,55h-6v-4h6V55z M84,48   h-6v-4h6V48z M84,41h-6v-4h6V41z M84,34h-6v-4h6V34z M84,27h-6v-5h6V27z"></path></g></svg>